<?xml version="1.0" encoding="UTF-8"?>
<svg id="Layer_1" data-name="Layer 1" xmlns="http://www.w3.org/2000/svg" viewBox="0 0 480.45 102.28">
  <path d="m7.53,95.46L70.88,9.8h400.8l-64.14,85.66H7.53Zm61.33-5.18l13.96-9.64h49.96l-2.19,9.64h193.29l17.83-23.94h41.72c4.26-.73,8.52-1.46,12.79-2.19,4.8-.86,11.43-2.57,18.67-6.22,6.68-3.37,11.69-7.29,15.14-10.43,1.4-1.27,2.88-2.72,4.37-4.37,1.13-1.25,2.14-2.48,3.05-3.66,4.03-5.17,5.46-10.92,3.72-14.47-.81-1.64-2.14-2.99-2.14-2.99-1.15-1.15-2.7-2.15-5.68-3.24-4.46-1.64-5.21-1.79-7.28-2.27-3.66-.84-7.25-.98-12.48-1.12h-77.72l-53.72,72.89h-44.86l37.12-50.02h31.51l16.93-22.87h-108.67l-17.94,23.09h35.33l-36.56,49.42h-12.59l10.36-72.51h-51.39L21.08,90.28h47.78Zm312.64-41.44c1.98-.68,5.43-1.98,8.79-5.09,1.98-1.83,3.09-3.72,3.53-6.1,0-1.58.06-2.12-1.05-3.36-1.73-1.94-4.13-2.01-4.54-2.02h-21.36l-12.62,16.57h27.25Zm-242.94,16.09l7.79-27.59-40.15,27.59h32.36Z" style="fill: #fff;"/>
</svg>