<svg xmlns="http://www.w3.org/2000/svg" xmlns:xlink="http://www.w3.org/1999/xlink" version="1.1" id="Layer_1" x="0px" y="0px" viewBox="0 0 200 200" style="enable-background:new 0 0 200 200;" xml:space="preserve"><link xmlns="" type="text/css" rel="stylesheet" id="dark-mode-custom-link"/><link xmlns="" type="text/css" rel="stylesheet" id="dark-mode-general-link"/><style xmlns="" lang="en" type="text/css" id="dark-mode-custom-style"/><style xmlns="" lang="en" type="text/css" id="dark-mode-native-style"/><style xmlns="" lang="en" type="text/css" id="dark-mode-native-sheet"/>
<style type="text/css">

	.st3{fill:#ffffff;}
	
</style>

<g>
	
	<g>
		<path class="st3" d="M134,80.5l-34-14l-34,14c1.3,13.6,5.3,26.2,12.1,37.6c6.2,10.3,13.5,17.8,21.9,22.4    c8.4-4.6,15.7-12,21.9-22.4C128.7,106.7,132.7,94.1,134,80.5z"/>
		<path class="st3" d="M133.3,141.4c0.1-0.1,0.1-0.1,0.2-0.2c0.8-1,1.7-2,2.5-3.1c0.3-0.4,0.7-0.9,1-1.3c0.4-0.6,0.9-1.2,1.3-1.8    c3.7-5.2,7-10.9,9.8-16.9c5.3-12.1,8.3-25.2,8.9-39.3c0.1-1.9,0.1-3.7,0.1-5.6c0-2.4-0.6-4.5-1.9-6.4c-1.3-1.9-3-3.2-5.2-4    l-45.7-19c-2.9-1.3-5.7-1.3-8.6,0l-45.7,19c-2.2,0.8-4,2.1-5.2,4c-1.3,1.9-1.9,4-1.9,6.4c0,1.9,0,3.8,0.1,5.6    c0.6,14.2,3.6,27.3,8.9,39.3c2.8,6,6,11.7,9.8,16.9c0.4,0.6,0.9,1.2,1.3,1.8c0.3,0.4,0.7,0.9,1,1.3c0.8,1,1.6,2.1,2.5,3.1    c0.1,0.1,0.1,0.1,0.2,0.2c0.9,1.1,1.9,2.2,2.8,3.2c0.1,0.1,0.1,0.2,0.2,0.2c0.3,0.3,0.6,0.7,1,1.1c5.1,5.4,10.5,9.8,16.2,13.2    c0,0,0.1,0.1,0.1,0.1c0.8,0.5,1.7,1,2.6,1.5c0.6,0.3,1.1,0.6,1.7,0.9c0.4,0.2,0.8,0.4,1.2,0.6c1.1,0.5,2.1,1,3.2,1.4    c2.9,1.3,5.7,1.3,8.6,0c1.1-0.4,2.1-0.9,3.2-1.4c0.4-0.2,0.8-0.4,1.2-0.6c0.6-0.3,1.2-0.6,1.7-0.9c0.9-0.5,1.7-1,2.6-1.5    c0,0,0.1-0.1,0.1-0.1c5.7-3.4,11.1-7.8,16.2-13.2c0.3-0.3,0.6-0.7,1-1.1c0.1-0.1,0.1-0.2,0.2-0.2    C131.4,143.6,132.3,142.5,133.3,141.4z M101.4,156.6c-1,0.3-1.9,0.3-2.9,0c-8.1-3.2-15.7-8.6-22.8-16.4    c-7.6-8.2-13.6-17.8-17.8-28.8c-4.9-12.2-7.4-25-7.4-38.3c0-1.7,0.8-2.9,2.4-3.6l45.7-19c1-0.3,1.9-0.3,2.9,0l45.7,19    c1.6,0.6,2.4,1.8,2.4,3.6c0,13.3-2.5,26.1-7.4,38.3c-4.3,10.9-10.2,20.5-17.8,28.8C117.1,148,109.5,153.4,101.4,156.6z"/>
	</g>
</g>

</svg>