<svg xmlns="http://www.w3.org/2000/svg" xmlns:xlink="http://www.w3.org/1999/xlink" version="1.1" id="Layer_1" x="0px" y="0px" viewBox="0 0 200 200" style="enable-background:new 0 0 200 200;" xml:space="preserve"><link xmlns="" type="text/css" rel="stylesheet" id="dark-mode-custom-link"/><link xmlns="" type="text/css" rel="stylesheet" id="dark-mode-general-link"/><style xmlns="" lang="en" type="text/css" id="dark-mode-custom-style"/><style xmlns="" lang="en" type="text/css" id="dark-mode-native-style"/><style xmlns="" lang="en" type="text/css" id="dark-mode-native-sheet"/>
<style type="text/css">
	.st3{fill:#FFFFFF;}
</style>
	<g>
		<path class="st3" d="M149,64.8h-0.2c2.2,0.8,4,2.1,5.2,4c1.3,1.9,1.9,4,1.9,6.4c0,16.3-3,31.3-9,44.9c-5.2,11.4-12.2,21.4-20.9,30    c-7.3,7.1-14.9,12.3-22.8,15.5c-2.9,1.3-5.7,1.3-8.6,0c-9-3.6-17.4-9.5-25-17.6c-8.4-8.7-15-18.9-19.7-30.7    c-5.4-13.2-8.1-27.2-8.1-42.1c0-2.4,0.6-4.5,1.9-6.4c1.3-1.9,3-3.2,5.2-4l45.7-19c2.9-1.3,5.8-1.3,8.8,0L149,64.8z M100.3,158.7    c8.1-3.2,15.7-8.6,22.8-16.4c7.6-8.2,13.6-17.8,17.8-28.8c4.9-12.2,7.4-25,7.4-38.3c0-1.7-0.8-2.9-2.4-3.6l-45.7-19    c-1-0.3-1.9-0.3-2.9,0l-45.7,19c-1.6,0.6-2.4,1.8-2.4,3.6c0,13.3,2.5,26.1,7.4,38.3c4.3,10.9,10.2,20.5,17.8,28.8    c7.1,7.8,14.7,13.2,22.8,16.4C98.4,159,99.3,159,100.3,158.7z"/>
	</g>
	<g>
		<path class="st3" d="M125.7,98.3c2.1,1.2,3.8,2.8,5,4.8c1.3,2.1,1.9,4.3,1.9,6.7s-0.6,4.6-1.7,6.6c-1.2,2-2.7,3.6-4.7,4.7    s-4.2,1.7-6.6,1.7H82.1c-2.6,0-5.1-0.7-7.3-2c-2.2-1.3-4-3.1-5.3-5.3c-1.3-2.2-2-4.7-2-7.3c0-3.1,0.9-6,2.7-8.5s4.2-4.3,7.1-5.3    c0.1-3.1,1-6,2.6-8.6c1.6-2.6,3.8-4.7,6.5-6.2s5.6-2.3,8.8-2.3c3,0,5.8,0.7,8.4,2s4.7,3.2,6.3,5.6c1.6-0.7,3.2-1.1,4.9-1.1    c2,0,3.9,0.5,5.7,1.5c1.8,1,3.2,2.4,4.2,4.2s1.5,3.7,1.5,5.7C126.1,96.2,126,97.2,125.7,98.3z M119.6,119.6c2.7,0,5-1,6.9-2.9    c1.9-1.9,2.9-4.2,2.9-6.9c0-2.4-0.8-4.6-2.3-6.4c-1.6-1.8-3.5-2.9-5.9-3.3c1.2-1.4,1.7-3.1,1.7-5c0-2.2-0.8-4.2-2.4-5.8    c-1.6-1.6-3.5-2.4-5.9-2.4c-2.3,0-4.3,0.9-5.9,2.6c-1.1-2.7-2.9-4.9-5.3-6.6c-2.4-1.7-5.2-2.5-8.3-2.5c-2.6,0-5.1,0.7-7.3,2    c-2.2,1.3-4,3.1-5.3,5.3c-1.3,2.2-2,4.7-2,7.3c0,0.6,0,1.2,0.1,1.7c-2.8,0.4-5.1,1.7-7,3.8c-1.9,2.1-2.9,4.6-2.9,7.5    c0,2,0.5,3.9,1.5,5.7c1,1.8,2.4,3.2,4.2,4.2c1.8,1,3.7,1.5,5.7,1.5H119.6z"/>
		<path class="st3" d="M119.6,123.7H82.1c-2.8,0-5.4-0.7-7.8-2.1c-2.4-1.4-4.3-3.3-5.7-5.7c-1.4-2.4-2.1-5-2.1-7.8    c0-3.3,1-6.3,2.9-9c1.8-2.5,4.1-4.4,7-5.5c0.2-3,1.1-5.9,2.7-8.5c1.7-2.7,4-4.9,6.8-6.5c2.8-1.6,5.9-2.4,9.2-2.4    c3.1,0,6.1,0.7,8.8,2.1c2.5,1.3,4.6,3.1,6.2,5.3c3.5-1.4,7.5-1.1,10.7,0.7c1.9,1.1,3.4,2.6,4.5,4.5c1.1,1.9,1.6,4,1.6,6.1    c0,0.9-0.1,1.8-0.3,2.7c2,1.2,3.6,2.8,4.8,4.8c1.3,2.2,2,4.6,2,7.1c0,2.5-0.6,4.9-1.8,7c-1.2,2.1-2.9,3.8-5.1,5.1    C124.4,123.1,122.1,123.7,119.6,123.7z M95.1,78c-3,0-5.8,0.7-8.3,2.2c-2.6,1.4-4.7,3.4-6.2,5.9c-1.5,2.5-2.4,5.2-2.5,8.2l0,0.6    l-0.6,0.2c-2.7,1-5,2.6-6.7,5c-1.7,2.4-2.5,5.1-2.5,8c0,2.5,0.6,4.8,1.9,6.9c1.2,2.1,2.9,3.8,5,5c2.1,1.2,4.4,1.9,6.9,1.9h37.5    c2.2,0,4.3-0.5,6.1-1.6c1.9-1.1,3.3-2.6,4.4-4.4c1.1-1.9,1.6-3.9,1.6-6.1c0-2.2-0.6-4.3-1.8-6.2c-1.2-1.9-2.8-3.5-4.7-4.5    l-0.6-0.3l0.2-0.7c0.3-0.9,0.4-1.9,0.4-2.9c0-1.9-0.5-3.6-1.4-5.3c-0.9-1.6-2.2-2.9-3.9-3.9c-3-1.7-6.6-1.9-9.8-0.4l-0.7,0.3    l-0.4-0.6c-1.5-2.2-3.6-4-6-5.3C100.6,78.7,97.9,78,95.1,78z M119.6,120.4H82.1c-2.2,0-4.2-0.6-6.1-1.6c-1.9-1.1-3.4-2.6-4.5-4.5    c-1.1-1.9-1.6-4-1.6-6.1c0-3.1,1-5.8,3.1-8.1c1.8-2.1,4.1-3.4,6.7-4c0-0.3,0-0.7,0-1c0-2.8,0.7-5.4,2.1-7.8    c1.4-2.4,3.3-4.3,5.7-5.7c2.4-1.4,5-2.1,7.8-2.1c3.2,0,6.2,0.9,8.8,2.7c2.2,1.5,3.9,3.5,5.1,5.9c1.6-1.4,3.5-2,5.6-2    c2.5,0,4.7,0.9,6.5,2.6s2.6,3.9,2.6,6.4c0,1.6-0.4,3.1-1.2,4.4c2,0.6,3.7,1.7,5.1,3.3c1.7,2,2.6,4.3,2.6,6.9c0,2.9-1,5.5-3.1,7.5    C125,119.4,122.5,120.4,119.6,120.4z M95.1,81.3c-2.5,0-4.8,0.6-6.9,1.9c-2.1,1.2-3.8,2.9-5,5c-1.2,2.1-1.9,4.4-1.9,6.9    c0,0.6,0,1.1,0.1,1.6l0.1,0.8l-0.8,0.1c-2.6,0.4-4.7,1.5-6.5,3.5c-1.8,2-2.6,4.3-2.6,6.9c0,1.9,0.5,3.6,1.4,5.3    c0.9,1.6,2.2,2.9,3.9,3.9c1.6,0.9,3.4,1.4,5.3,1.4h37.5c2.5,0,4.6-0.9,6.3-2.6c1.7-1.7,2.6-3.8,2.6-6.3c0-2.3-0.7-4.1-2.1-5.8    c-1.4-1.7-3.2-2.6-5.4-3l-1.5-0.3l0.9-1.2c1-1.3,1.5-2.7,1.5-4.4c0-2-0.7-3.7-2.1-5.1s-3.2-2.1-5.2-2.1c-2.1,0-3.8,0.8-5.3,2.4    l-0.9,1l-0.5-1.3c-1-2.5-2.7-4.6-5-6.2C100.6,82.1,98,81.3,95.1,81.3z"/>
	</g>
</svg>