<svg xmlns="http://www.w3.org/2000/svg" xmlns:xlink="http://www.w3.org/1999/xlink" version="1.1" id="Layer_1" x="0px" y="0px" viewBox="0 0 200 200" style="enable-background:new 0 0 200 200;" xml:space="preserve"><link xmlns="" type="text/css" rel="stylesheet" id="dark-mode-custom-link"/><link xmlns="" type="text/css" rel="stylesheet" id="dark-mode-general-link"/><style xmlns="" lang="en" type="text/css" id="dark-mode-custom-style"/><style xmlns="" lang="en" type="text/css" id="dark-mode-native-style"/><style xmlns="" lang="en" type="text/css" id="dark-mode-native-sheet"/>
<style type="text/css">
	.st3{fill:#FFFFFF;}
</style>
	<g>
		<path class="st3" d="M149,61.7c2.2,0.8,4,2.1,5.2,4c1.3,1.9,1.9,4,1.9,6.4c0,16.3-3,31.3-9,44.9c-5.2,11.4-12.2,21.4-20.9,30    c-7.3,7.1-14.9,12.3-22.8,15.5c-2.9,1.3-5.7,1.3-8.6,0c-9-3.6-17.4-9.5-25-17.6c-8.4-8.7-15-18.9-19.7-30.7    C44.7,101.1,42,87.1,42,72.2c0-2.4,0.6-4.5,1.9-6.4s3-3.2,5.2-4l45.7-19c2.9-1.3,5.7-1.3,8.6,0L149,61.7z M100.5,155.7    c8.1-3.2,15.7-8.6,22.8-16.4c7.6-8.2,13.6-17.8,17.8-28.8c4.9-12.2,7.4-25,7.4-38.3c0-1.7-0.8-2.9-2.4-3.6l-45.7-19    c-1-0.3-1.9-0.3-2.9,0L52,68.6c-1.6,0.6-2.4,1.8-2.4,3.6c0,13.3,2.5,26.1,7.4,38.3c4.3,10.9,10.2,20.5,17.8,28.8    c7.1,7.8,14.7,13.2,22.8,16.4C98.6,156,99.6,156,100.5,155.7z M99.1,139.5c-8.4-4.6-15.7-12-21.9-22.4    c-6.8-11.4-10.9-23.9-12.1-37.6l34-14V139.5z"/>
	</g>
</svg>