<svg xmlns="http://www.w3.org/2000/svg" xmlns:xlink="http://www.w3.org/1999/xlink" version="1.1" id="Layer_1" x="0px" y="0px" viewBox="0 0 200 200" style="enable-background:new 0 0 200 200;" xml:space="preserve"><link xmlns="" type="text/css" rel="stylesheet" id="dark-mode-custom-link"/><link xmlns="" type="text/css" rel="stylesheet" id="dark-mode-general-link"/><style xmlns="" lang="en" type="text/css" id="dark-mode-custom-style"/><style xmlns="" lang="en" type="text/css" id="dark-mode-native-style"/><style xmlns="" lang="en" type="text/css" id="dark-mode-native-sheet"/>
<style type="text/css">
	.st3{fill:#FFFFFF;}
</style>
<g>
	<path class="st3" d="M90.2,104.1c3.8,0,7.4,0.8,10.7,2.4c3.3,1.6,6,4,8.1,7.1c2.7,3.9,4.1,8.3,4.1,13v9.2c0,2.7-1,5-2.9,6.9   c-1.9,1.9-4.2,2.9-6.9,2.9H44.6c-2.7,0-5-1-6.9-2.9c-1.9-1.9-2.9-4.2-2.9-6.9v-9.2c0-4.8,1.4-9.1,4.1-13c2-3.1,4.7-5.5,8.1-7.1   c3.3-1.6,6.9-2.4,10.7-2.4c2.2,0,4.7,0.4,7.5,1.2c3.1,0.8,6,1.2,8.8,1.2c2.7,0,5.6-0.4,8.8-1.2C85.5,104.5,88,104.1,90.2,104.1z    M106.5,135.9v-9.2c0-3.4-1-6.5-2.9-9.4c-1.5-2.2-3.4-3.8-5.7-5c-2.3-1.2-4.9-1.7-7.7-1.7c-1.6,0-3.7,0.3-6.1,1   c-3.5,1-6.9,1.4-10.2,1.4c-3.3,0-6.7-0.5-10.2-1.4c-2.4-0.7-4.5-1-6.1-1c-2.9,0-5.5,0.6-7.8,1.7c-2.4,1.2-4.2,2.8-5.6,5   c-1.9,2.9-2.9,6-2.9,9.4v9.2c0,1,0.3,1.7,0.9,2.3c0.6,0.6,1.4,0.9,2.3,0.9h58.7c1,0,1.7-0.3,2.3-0.9   C106.2,137.6,106.5,136.8,106.5,135.9z M73.9,100c-4.1,0-7.9-1-11.4-3.1c-3.5-2-6.3-4.8-8.4-8.4c-2-3.5-3.1-7.3-3.1-11.4   s1-7.9,3.1-11.4c2-3.5,4.8-6.3,8.4-8.4s7.3-3.1,11.4-3.1c4.1,0,7.9,1,11.4,3.1s6.3,4.8,8.4,8.4c2,3.5,3.1,7.3,3.1,11.4   s-1,7.9-3.1,11.4c-2,3.5-4.8,6.3-8.4,8.4C81.8,99,78,100,73.9,100z M73.9,60.9c-4.5,0-8.3,1.6-11.5,4.8c-3.2,3.2-4.8,7-4.8,11.5   s1.6,8.3,4.8,11.5s7,4.8,11.5,4.8s8.3-1.6,11.5-4.8c3.2-3.2,4.8-7,4.8-11.5s-1.6-8.3-4.8-11.5C82.2,62.5,78.4,60.9,73.9,60.9z    M162,112.4c2.2,3.3,3.3,6.9,3.3,11v7.5c0,2.3-0.8,4.2-2.3,5.8s-3.5,2.3-5.8,2.3h-37.9c0.3-1.1,0.4-2.9,0.4-5.3v-1.2h37.5   c0.4,0,0.8-0.2,1.1-0.5s0.5-0.7,0.5-1.1v-7.5c0-2.7-0.7-5.2-2.2-7.3c-1.1-1.6-2.5-2.9-4.3-3.8c-1.8-0.9-3.7-1.3-5.9-1.3   c-1.4,0-3,0.3-4.9,0.8c-3,0.8-5.9,1.2-8.8,1.2c-2.9,0-5.8-0.4-8.8-1.2c-1.9-0.5-3.5-0.8-4.7-0.8s-2.5,0.2-3.9,0.6v-0.4   c-1-1.5-2.3-3.2-4.1-5.1c2.6-1.1,5.2-1.6,7.7-1.6c1.9,0,4.1,0.3,6.5,1c2.4,0.7,4.8,1,7.1,1c2.3,0,4.7-0.3,7.1-1   c2.4-0.7,4.6-1,6.5-1c3.1,0,6.1,0.7,8.9,2S160.2,109.9,162,112.4z M132.6,100c-5.4,0-10.1-1.9-13.9-5.7c-3.8-3.8-5.7-8.4-5.7-13.9   s1.9-10.1,5.7-13.9c3.8-3.8,8.4-5.7,13.9-5.7c5.4,0,10.1,1.9,13.9,5.7c3.8,3.8,5.7,8.4,5.7,13.9s-1.9,10.1-5.7,13.9   C142.7,98.1,138,100,132.6,100z M132.6,67.4c-3.5,0-6.6,1.3-9.2,3.9s-3.9,5.6-3.9,9.2s1.3,6.6,3.9,9.2s5.6,3.9,9.2,3.9   c3.5,0,6.6-1.3,9.2-3.9s3.9-5.6,3.9-9.2s-1.3-6.6-3.9-9.2S136.1,67.4,132.6,67.4z"/>
</g>
</svg>