<svg xmlns="http://www.w3.org/2000/svg" xmlns:xlink="http://www.w3.org/1999/xlink" version="1.1" id="Layer_1" x="0px" y="0px" viewBox="0 0 200 200" style="enable-background:new 0 0 200 200;" xml:space="preserve"><link xmlns="" type="text/css" rel="stylesheet" id="dark-mode-custom-link"/><link xmlns="" type="text/css" rel="stylesheet" id="dark-mode-general-link"/><style xmlns="" lang="en" type="text/css" id="dark-mode-custom-style"/><style xmlns="" lang="en" type="text/css" id="dark-mode-native-style"/><style xmlns="" lang="en" type="text/css" id="dark-mode-native-sheet"/>
<style type="text/css">
	.st3{fill:#FFFFFF;}
</style>
<g>
	<path class="st3" d="M155.6,96.2c4.6,2.5,8.2,6,10.9,10.5c2.7,4.5,4.1,9.3,4.1,14.5c0,5.2-1.3,9.9-3.8,14.2   c-2.5,4.3-5.9,7.8-10.3,10.3c-4.3,2.5-9.1,3.8-14.2,3.8H61.1c-5.7,0-11-1.4-15.9-4.3s-8.7-6.7-11.6-11.6   c-2.9-4.9-4.3-10.2-4.3-15.9c0-6.8,2-12.9,5.9-18.4s9-9.4,15.3-11.6c0.3-6.8,2.2-13,5.7-18.7c3.5-5.7,8.2-10.2,14.1-13.5   c5.9-3.3,12.2-5,19-5c6.5,0,12.5,1.5,18.1,4.4c5.6,2.9,10.2,7,13.7,12.1c3.4-1.6,6.9-2.4,10.6-2.4c4.4,0,8.5,1.1,12.4,3.3   s6.8,5.2,9.1,9.1c2.2,3.8,3.3,7.9,3.3,12.4C156.5,91.8,156.2,94,155.6,96.2z M142.4,142.4c5.9,0,10.9-2.1,15-6.2s6.2-9.1,6.2-15   c0-5.3-1.7-9.9-5.1-13.8s-7.7-6.3-12.8-7.2c2.5-3.1,3.8-6.7,3.8-10.8c0-4.9-1.7-9-5.2-12.5c-3.5-3.5-7.7-5.2-12.7-5.2   c-5,0-9.3,1.9-12.8,5.7c-2.4-5.9-6.2-10.7-11.5-14.4c-5.3-3.7-11.3-5.5-17.9-5.5c-5.7,0-11,1.4-15.9,4.3   c-4.9,2.9-8.7,6.7-11.6,11.6c-2.9,4.9-4.3,10.2-4.3,15.9c0,1.3,0.1,2.6,0.2,3.8c-6,0.9-11.1,3.6-15.2,8.3c-4.1,4.6-6.2,10-6.2,16.2   c0,4.4,1.1,8.5,3.3,12.4c2.2,3.8,5.2,6.8,9.1,9.1s7.9,3.3,12.4,3.3H142.4z"/>
</g>
</svg>