<svg xmlns="http://www.w3.org/2000/svg" xmlns:xlink="http://www.w3.org/1999/xlink" version="1.1" id="Layer_1" x="0px" y="0px" viewBox="0 0 200 200" style="enable-background:new 0 0 200 200;" xml:space="preserve"><link xmlns="" type="text/css" rel="stylesheet" id="dark-mode-custom-link"/><link xmlns="" type="text/css" rel="stylesheet" id="dark-mode-general-link"/><style xmlns="" lang="en" type="text/css" id="dark-mode-custom-style"/><style xmlns="" lang="en" type="text/css" id="dark-mode-native-style"/><style xmlns="" lang="en" type="text/css" id="dark-mode-native-sheet"/>
<style type="text/css">
	.st3{fill:#FFFFFF;}
</style>
	<g>
		<path class="st3" d="M149,64.8h-0.2c2.2,0.8,4,2.1,5.2,4c1.3,1.9,1.9,4,1.9,6.4c0,16.3-3,31.3-9,44.9c-5.2,11.4-12.2,21.4-20.9,30    c-7.3,7.1-14.9,12.3-22.8,15.5c-2.9,1.3-5.7,1.3-8.6,0c-9-3.6-17.4-9.5-25-17.6c-8.4-8.7-15-18.9-19.7-30.7    c-5.4-13.2-8.1-27.2-8.1-42.1c0-2.4,0.6-4.5,1.9-6.4c1.3-1.9,3-3.2,5.2-4l45.7-19c2.9-1.3,5.8-1.3,8.8,0L149,64.8z M100.3,158.7    c8.1-3.2,15.7-8.6,22.8-16.4c7.6-8.2,13.6-17.8,17.8-28.8c4.9-12.2,7.4-25,7.4-38.3c0-1.7-0.8-2.9-2.4-3.6l-45.7-19    c-1-0.3-1.9-0.3-2.9,0l-45.7,19c-1.6,0.6-2.4,1.8-2.4,3.6c0,13.3,2.5,26.1,7.4,38.3c4.3,10.9,10.2,20.5,17.8,28.8    c7.1,7.8,14.7,13.2,22.8,16.4C98.4,159,99.3,159,100.3,158.7z"/>
	</g>
	<g>
		<path class="st3" d="M99.8,130.7c-0.2,0-0.6-0.1-1-0.4H87.7l-0.4-0.6c-0.2-0.2-1.5-2.2-1.5-4.5c0-2.4,1.5-3.4,2.3-3.6l0.2-0.1   l6.9-0.1c-0.2-2.8-0.8-8.9-1.3-17.4l-6.6-0.9c-0.9,1.4-2.2,2.2-3.6,2.2c-1.5,0-2.8-0.9-3.7-2.4c-3.9-0.3-15.1-1-16-1.2   c-1.4-0.3-2.2-1.4-2.2-2.3l0-0.1v-0.1c0-0.1,0.1-5.6,0.1-6.5c0-1.5,1.1-2.4,2.1-2.4l15.1-1.3l0-4.8c0-1.3,1.2-1.9,2.2-2.4   c0.1,0,0.1-0.1,0.2-0.1c0.2-2.9,1-4.3,2.4-4.3c1.5,0,2.2,1.4,2.3,4.4c0,0,0.1,0.1,0.1,0.1c0.8,0.5,1.9,1.1,1.9,2.3v3.4l5.6-1.2   c0.7-8.7,2.8-17.1,6-17.1c0.5,0,2.1,0,3.9,4.9c0.8,2.2,1.8,6.1,2.3,12.1l5.6,1.2v-3.4c0-1.2,1.1-1.9,1.9-2.3c0,0,0.1,0,0.1-0.1   c0.1-3,0.9-4.4,2.3-4.4c1.5,0,2.2,1.4,2.4,4.3c0.1,0,0.1,0.1,0.2,0.1c1,0.5,2.2,1.1,2.2,2.4l0,4.8l15.1,1.3c1,0,2.1,0.9,2.1,2.4   c0,0.9,0.1,6.5,0.1,6.5v0.1l0,0.1c-0.1,0.9-0.8,2.1-2.2,2.3c-0.9,0.2-12.1,0.9-16,1.2c-0.9,1.5-2.2,2.4-3.7,2.4   c-1.4,0-2.7-0.8-3.6-2.2l-6.6,0.9c-0.6,8.4-1.3,14.6-1.6,17.4l7,0.1l0.3,0.2c0.8,0.4,2.1,1.7,2.1,3.8c0,2.2-1.4,4-1.6,4.2l-0.4,0.6   h-11.1C100.5,130.6,100.1,130.7,99.8,130.7z M100.8,127.4h9.6c0.3-0.5,0.6-1.2,0.6-1.8c0-0.5-0.2-0.8-0.4-1l-9.5-0.1l0.2-1.7   c0-0.1,1.1-7.8,1.9-20l0.1-1.2l11.2-1.5l0.4,1.1c0.3,0.8,0.9,1.3,1.3,1.3c0.5,0,1-0.6,1.4-1.4l0.3-0.9l0.9-0.1   c5.7-0.4,14.7-1,16.4-1.2c0-1.2-0.1-4.3-0.1-5.7l-17.2-1.5l0-7c-0.2-0.1-0.4-0.2-0.5-0.3c-0.5-0.2-1-0.5-1.3-0.8   c-0.3,0.3-0.7,0.5-1.1,0.7c-0.1,0.1-0.3,0.2-0.4,0.3v6.5l-11.3-2.5l-0.1-1.1c-0.7-8.9-2.4-13.3-3.3-14.9c-0.9,1.6-2.5,6-3.1,14.9   l-0.1,1.1l-11.3,2.5v-6.5c-0.1-0.1-0.3-0.2-0.4-0.3c-0.4-0.2-0.8-0.4-1.1-0.7c-0.4,0.4-0.9,0.6-1.3,0.8c-0.1,0.1-0.4,0.2-0.5,0.3   l0,7l-17.2,1.5c0,1.3-0.1,4.4-0.1,5.6c1.7,0.2,10.7,0.8,16.4,1.2l0.9,0.1l0.3,0.9c0.3,0.8,0.9,1.4,1.4,1.4c0.5,0,1-0.5,1.3-1.3   l0.4-1.1l11.2,1.5l0.1,1.2c0.7,12.3,1.5,20,1.5,20.1l0.2,1.6l-9.5,0.1c-0.1,0.1-0.2,0.3-0.2,0.8c0,0.8,0.3,1.6,0.6,2.1H100.8z"/>
	</g>
</svg>