<svg xmlns="http://www.w3.org/2000/svg" xmlns:xlink="http://www.w3.org/1999/xlink" version="1.1" id="Layer_1" x="0px" y="0px" viewBox="0 0 200 200" style="enable-background:new 0 0 200 200;" xml:space="preserve"><link xmlns="" type="text/css" rel="stylesheet" id="dark-mode-custom-link"/><link xmlns="" type="text/css" rel="stylesheet" id="dark-mode-general-link"/><style xmlns="" lang="en" type="text/css" id="dark-mode-custom-style"/><style xmlns="" lang="en" type="text/css" id="dark-mode-native-style"/><style xmlns="" lang="en" type="text/css" id="dark-mode-native-sheet"/>
<style type="text/css">
	.st3{fill:#FFFFFF;}
</style>
<g>
	<path class="st3" d="M99.7,155.4c-0.4,0-1.2-0.1-1.8-0.7h-20l-0.8-1.1c-0.3-0.4-2.7-3.9-2.7-8.1c0-4.3,2.6-6.2,4.2-6.6l0.3-0.1   l12.4-0.1c-0.4-5-1.4-16.1-2.3-31.3l-11.9-1.6c-1.6,2.4-3.9,3.9-6.4,3.9c-2.7,0-5.1-1.6-6.7-4.3c-7-0.5-27.3-1.9-28.9-2.2   c-2.6-0.5-3.9-2.5-4-4.2l0-0.1v-0.1c0-0.1,0.2-10.1,0.2-11.8c0-2.8,1.9-4.3,3.7-4.4l27.3-2.3l0-8.7c0-2.4,2.2-3.4,4-4.3   c0.1-0.1,0.2-0.1,0.4-0.2c0.4-5.3,1.8-7.8,4.4-7.8c2.7,0,4,2.5,4.2,7.9c0.1,0,0.2,0.1,0.2,0.1c1.5,0.8,3.5,2,3.5,4.2v6L89,75.4   c1.3-15.7,5.1-30.9,10.7-30.9c1,0,3.9,0,7,8.9c1.4,4,3.2,10.9,4.2,21.9l10.1,2.2v-6c0-2.2,2-3.4,3.5-4.2c0.1,0,0.2-0.1,0.2-0.1   c0.2-5.4,1.5-7.9,4.2-7.9c2.6,0,4.1,2.5,4.4,7.8c0.1,0.1,0.3,0.1,0.4,0.2c1.8,0.8,4,1.9,4,4.3l0,8.7l27.3,2.3   c1.8,0.1,3.8,1.6,3.8,4.4c0,1.7,0.2,11.7,0.2,11.8V99l0,0.1c-0.1,1.7-1.4,3.7-4,4.2c-1.7,0.3-21.9,1.7-28.9,2.2   c-1.5,2.7-4,4.3-6.7,4.3c-2.5,0-4.9-1.5-6.4-3.9l-12,1.6c-1,15.2-2.3,26.3-2.9,31.4l12.7,0.2l0.6,0.3c1.4,0.8,3.8,3.1,3.8,6.8   c0,3.9-2.5,7.2-2.8,7.6l-0.8,1h-20C100.9,155.3,100.1,155.4,99.7,155.4z M101.4,149.4h17.3c0.5-0.9,1-2.1,1-3.3   c0-0.9-0.4-1.5-0.7-1.8l-17.1-0.3l0.4-3c0-0.1,1.9-14,3.4-36.1l0.1-2.2l20.3-2.7l0.8,1.9c0.6,1.5,1.6,2.4,2.4,2.4   c0.9,0,1.9-1,2.5-2.5l0.6-1.6l1.7-0.1c10.2-0.7,26.6-1.8,29.5-2.2c0-2.2-0.2-7.8-0.2-10.2l-31.1-2.7l0-12.6c-0.3-0.2-0.7-0.3-1-0.5   c-0.9-0.4-1.8-0.8-2.4-1.5c-0.6,0.5-1.3,0.9-1.9,1.3c-0.2,0.1-0.5,0.3-0.8,0.5v11.8l-20.5-4.5l-0.1-2c-1.2-16.1-4.3-24-5.9-26.9   c-1.6,2.9-4.5,10.8-5.6,26.9l-0.1,2l-20.4,4.5V72.5c-0.3-0.2-0.6-0.3-0.8-0.5c-0.7-0.4-1.4-0.8-1.9-1.3c-0.7,0.6-1.6,1.1-2.4,1.5   c-0.3,0.1-0.6,0.3-1,0.5l0,12.6l-31.1,2.7c0,2.4-0.1,8-0.2,10.2c3.1,0.3,19.4,1.5,29.5,2.2l1.7,0.1l0.6,1.6   c0.6,1.5,1.6,2.5,2.5,2.5c0.9,0,1.9-1,2.4-2.4l0.8-1.9l20.2,2.7l0.1,2.2c1.3,22.2,2.6,36.1,2.6,36.2l0.3,2.9l-17.1,0.2   c-0.2,0.2-0.3,0.6-0.3,1.4c0,1.4,0.6,2.8,1.1,3.8H101.4z"/>
</g>

</svg>